<svg width="24" height="24" viewBox="0 0 24 24" fill="none" xmlns="http://www.w3.org/2000/svg">
<path d="M9.52799 12.7078C8.82279 12.7078 8.26486 13.3148 8.39757 14.0075C8.79605 16.0873 9.68267 17.9936 10.9343 19.6032C11.3577 20.1478 12.1649 20.1478 12.5883 19.6032C13.8401 17.9936 14.7266 16.0874 15.125 14.0075C15.2577 13.3148 14.6999 12.7078 13.9946 12.7078H9.52799Z" fill="black"/>
<path d="M18.8274 12.7078C18.1999 12.7078 17.6836 13.1922 17.5915 13.8128C17.1744 16.6282 16.0049 19.1986 14.2952 21.3122C13.9255 21.7692 13.9784 22.449 14.4432 22.8089C14.6891 22.9992 15.0104 23.0668 15.3074 22.975C19.4222 21.7038 22.5914 18.2786 23.498 14.0167C23.6458 13.3226 23.0861 12.7078 22.3764 12.7078H18.8274Z" fill="black"/>
<path d="M1.14539 12.7078C0.435777 12.7078 -0.123855 13.3226 0.023793 14.0167C0.962865 18.4313 4.32943 21.948 8.65993 23.1032C8.95351 23.1815 9.26389 23.0868 9.47576 22.8691C9.80384 22.5319 9.80456 21.9973 9.49892 21.6397C7.64115 19.4664 6.36926 16.7753 5.93031 13.8128C5.83835 13.1922 5.32187 12.7078 4.69446 12.7078H1.14539Z" fill="black"/>
<path d="M23.498 8.99886C23.6456 9.6929 23.0861 10.3078 22.3764 10.3078H18.8274C18.1999 10.3078 17.6834 9.82333 17.5915 9.20269C17.1744 6.38734 16.0049 3.81694 14.2952 1.70328C13.9255 1.2463 13.9784 0.566512 14.4432 0.206692C14.6891 0.0163597 15.0104 -0.0512122 15.3074 0.0405638C19.4222 1.31178 22.5914 4.73688 23.498 8.99886Z" fill="black"/>
<path d="M15.1252 9.00804C15.2578 9.70071 14.6999 10.3078 13.9946 10.3078H9.52799C8.82279 10.3078 8.26486 9.70071 8.39757 9.00802C8.79606 6.92817 9.68267 5.02189 10.9343 3.4123C11.3577 2.86777 12.1649 2.86778 12.5883 3.4123C13.8401 5.02189 14.7266 6.92817 15.1252 9.00804Z" fill="black"/>
<path d="M8.2125 0.0411153C8.51051 -0.0509967 8.83289 0.0171631 9.0791 0.208671C9.54261 0.569187 9.59481 1.24809 9.22551 1.70469C7.51644 3.81807 6.3474 6.38794 5.93033 9.20261C5.83836 9.82325 5.32188 10.3078 4.69447 10.3078H1.1454C0.435789 10.3078 -0.123855 9.69293 0.0237926 8.99884C0.930237 4.73751 4.0986 1.31282 8.2125 0.0411153Z" fill="black"/>
</svg>
