<svg width="24" height="24" viewBox="0 0 24 24" fill="none" xmlns="http://www.w3.org/2000/svg">
<g clip-path="url(#clip0_457_487)">
<path d="M5.64852 14.7514C6.11712 15.22 6.11712 15.9799 5.64852 16.4485C5.17992 16.9171 4.42008 16.9171 3.95148 16.4485L0.455879 12.9529C0.43788 12.9349 0.42036 12.9164 0.40356 12.8976C0.155999 12.6777 0 12.3571 0 12C0 11.6428 0.155999 11.3222 0.40356 11.1024C0.42036 11.0835 0.43788 11.065 0.455879 11.047L3.95148 7.55142C4.42008 7.0828 5.17992 7.0828 5.64852 7.55142C6.11712 8.02006 6.11712 8.77985 5.64852 9.24848L4.09704 10.8H10.8C11.4628 10.8 12 11.3372 12 12C12 12.6627 11.4628 13.2 10.8 13.2H4.09704L5.64852 14.7514Z" fill="black"/>
<path d="M20.4 0C22.3882 0 24 1.61178 24 3.6V20.4C24 22.3883 22.3882 24 20.4 24H9C7.34316 24 6 22.6568 6 21V17.6791C6.17772 17.5764 6.345 17.4491 6.49704 17.297C7.28232 16.5118 7.40964 15.3179 6.87912 14.4H10.8C12.1255 14.4 13.2 13.3255 13.2 12C13.2 10.6745 12.1255 9.6 10.8 9.6H6.87912C7.40964 8.68217 7.28232 7.48818 6.49704 6.70295C6.345 6.55092 6.17772 6.42355 6 6.32086V3C6 1.34315 7.34316 0 9 0H20.4Z" fill="black"/>
</g>
<defs>
<clipPath id="clip0_457_487">
<rect width="24" height="24" fill="white" transform="matrix(-1 0 0 1 24 0)"/>
</clipPath>
</defs>
</svg>
