<svg width="24" height="24" viewBox="0 0 24 24" fill="none" xmlns="http://www.w3.org/2000/svg">
<g clip-path="url(#clip0_445_131)">
<path fill-rule="evenodd" clip-rule="evenodd" d="M6 2.93659e-06H5.92101C4.85723 -5.70634e-05 3.94065 -0.000105089 3.20666 0.0985829C2.42004 0.204339 1.66602 0.442827 1.05442 1.05442C0.442827 1.66602 0.204339 2.42004 0.0985829 3.20666C-0.000105089 3.94065 -5.70634e-05 4.85723 2.93659e-06 5.92101V6V18.079C-5.70634e-05 19.1428 -0.000105089 20.0593 0.0985829 20.7934C0.204339 21.58 0.442827 22.334 1.05442 22.9456C1.66602 23.5572 2.42004 23.7956 3.20666 23.9015C3.94066 24.0001 4.85724 24.0001 5.92104 24H18.079C19.1428 24.0001 20.0593 24.0001 20.7934 23.9015C21.58 23.7956 22.334 23.5572 22.9456 22.9456C23.5572 22.334 23.7956 21.58 23.9015 20.7934C24.0001 20.0593 24.0001 19.1428 24 18.079V5.92104C24.0001 4.85724 24.0001 3.94066 23.9015 3.20666C23.7956 2.42004 23.5572 1.66602 22.9456 1.05442C22.334 0.442827 21.58 0.204339 20.7934 0.0985829C20.0593 -0.000105089 19.1428 -5.70634e-05 18.079 2.93659e-06H6ZM3.6 14.4C2.93727 14.4 2.4 14.9372 2.4 15.6C2.4 16.2628 2.93727 16.8 3.6 16.8H4.71556C5.11679 16.8 5.49147 17.0005 5.71402 17.3344L6.68907 18.7969C7.35674 19.7984 8.48078 20.4 9.68448 20.4H14.3155C15.5192 20.4 16.6433 19.7984 17.311 18.7969L18.286 17.3344C18.5086 17.0005 18.8832 16.8 19.2845 16.8H20.4C21.0628 16.8 21.6 16.2628 21.6 15.6C21.6 14.9372 21.0628 14.4 20.4 14.4H19.2845C18.0808 14.4 16.9567 15.0016 16.289 16.0031L15.314 17.4656C15.0914 17.7995 14.7168 18 14.3155 18H9.68448C9.28322 18 8.90854 17.7995 8.68599 17.4656L7.71094 16.0031C7.04327 15.0016 5.91923 14.4 4.71556 14.4H3.6ZM13.2 10.903L14.1515 9.95148C14.6201 9.48285 15.3799 9.48285 15.8485 9.95148C16.3171 10.4201 16.3171 11.1799 15.8485 11.6485L13.4485 14.0485C12.6485 14.8486 11.3515 14.8486 10.5515 14.0485L8.15147 11.6485C7.68285 11.1799 7.68285 10.4201 8.15147 9.95148C8.62011 9.48285 9.3799 9.48285 9.84852 9.95148L10.8 10.903V7.2C10.8 6.53727 11.3372 6 12 6C12.6628 6 13.2 6.53727 13.2 7.2V10.903Z" fill="black"/>
</g>
<defs>
<clipPath id="clip0_445_131">
<rect width="24" height="24" fill="white"/>
</clipPath>
</defs>
</svg>
