<svg width="24" height="24" viewBox="0 0 24 24" fill="none" xmlns="http://www.w3.org/2000/svg">
<g clip-path="url(#clip0_445_172)">
<path d="M12 24.012C18.6274 24.012 24 18.6394 24 12.012C24 5.38454 18.6274 0.0119629 12 0.0119629C5.37258 0.0119629 0 5.38454 0 12.012C0 18.6394 5.37258 24.012 12 24.012Z" fill="black"/>
<path d="M20.1372 20.8319C18.0012 22.7999 15.1452 24.0119 12.0012 24.0119C8.85723 24.0119 6.00123 22.7999 3.86523 20.8319C4.15323 19.7399 4.93323 18.7439 6.07323 17.9759C9.34923 15.7919 14.6772 15.7919 17.9292 17.9759C19.0812 18.7439 19.8492 19.7399 20.1372 20.8319Z" fill="white"/>
<path d="M12.0679 2.60938L13.0151 6.80264L16.6499 4.50732L14.3546 8.14218L18.5479 9.08938L14.3546 10.0366L16.6499 13.6714L13.0151 11.3761L12.0679 15.5694L11.1207 11.3761L7.48584 13.6714L9.78116 10.0366L5.58789 9.08938L9.78116 8.14218L7.48584 4.50732L11.1207 6.80264L12.0679 2.60938Z" fill="white"/>
</g>
<defs>
<clipPath id="clip0_445_172">
<rect width="24" height="24" fill="white"/>
</clipPath>
</defs>
</svg>
