<svg width="42" height="42" viewBox="0 0 42 42" fill="none" xmlns="http://www.w3.org/2000/svg">
<path d="M21 0L22.7334 8.94398L26.9164 0.850647L26.0598 9.92068L32.3535 3.33368L28.9762 11.795L36.8707 7.24792L31.2465 14.415L40.1023 12.2763L32.6866 17.5685L41.7863 18.0114L33.18 21L41.7863 23.9886L32.6866 24.4315L40.1023 29.7237L31.2465 27.585L36.8707 34.7521L28.9762 30.205L32.3535 38.6663L26.0598 32.0793L26.9164 41.1494L22.7334 33.056L21 42L19.2666 33.056L15.0836 41.1494L15.9402 32.0793L9.64654 38.6663L13.0238 30.205L5.12926 34.7521L10.7535 27.585L1.89773 29.7237L9.31338 24.4315L0.213749 23.9886L8.82 21L0.213749 18.0114L9.31338 17.5685L1.89773 12.2763L10.7535 14.415L5.12926 7.24792L13.0238 11.795L9.64654 3.33368L15.9402 9.92068L15.0836 0.850647L19.2666 8.94398L21 0Z" fill="white"/>
</svg>
