<svg width="545" height="53" viewBox="0 0 545 53" fill="none" xmlns="http://www.w3.org/2000/svg">
<g clip-path="url(#clip0_470_12514)">
<g clip-path="url(#clip1_470_12514)">
<g clip-path="url(#clip2_470_12514)">
<g opacity="0.2">
<path d="M0 0H545V1H0V0Z" fill="black"/>
<path d="M0 10H545V11H0V10Z" fill="black"/>
<path d="M0 20H545V21H0V20Z" fill="black"/>
<path d="M0 30H545V31H0V30Z" fill="black"/>
<path d="M0 40H545V41H0V40Z" fill="black"/>
<path d="M0 50H545V51H0V50Z" fill="black"/>
<path d="M0 0H1V53H0V0Z" fill="black"/>
<path d="M10 0H11V53H10V0Z" fill="black"/>
<path d="M20 0H21V53H20V0Z" fill="black"/>
<path d="M30 0H31V53H30V0Z" fill="black"/>
<path d="M40 0H41V53H40V0Z" fill="black"/>
<path d="M50 0H51V53H50V0Z" fill="black"/>
<path d="M60 0H61V53H60V0Z" fill="black"/>
<path d="M70 0H71V53H70V0Z" fill="black"/>
<path d="M80 0H81V53H80V0Z" fill="black"/>
<path d="M90 0H91V53H90V0Z" fill="black"/>
<path d="M100 0H101V53H100V0Z" fill="black"/>
<path d="M110 0H111V53H110V0Z" fill="black"/>
<path d="M120 0H121V53H120V0Z" fill="black"/>
<path d="M130 0H131V53H130V0Z" fill="black"/>
<path d="M140 0H141V53H140V0Z" fill="black"/>
<path d="M150 0H151V53H150V0Z" fill="black"/>
<path d="M160 0H161V53H160V0Z" fill="black"/>
<path d="M170 0H171V53H170V0Z" fill="black"/>
<path d="M180 0H181V53H180V0Z" fill="black"/>
<path d="M190 0H191V53H190V0Z" fill="black"/>
<path d="M200 0H201V53H200V0Z" fill="black"/>
<path d="M210 0H211V53H210V0Z" fill="black"/>
<path d="M220 0H221V53H220V0Z" fill="black"/>
<path d="M230 0H231V53H230V0Z" fill="black"/>
<path d="M240 0H241V53H240V0Z" fill="black"/>
<path d="M250 0H251V53H250V0Z" fill="black"/>
<path d="M260 0H261V53H260V0Z" fill="black"/>
<path d="M270 0H271V53H270V0Z" fill="black"/>
<path d="M280 0H281V53H280V0Z" fill="black"/>
<path d="M290 0H291V53H290V0Z" fill="black"/>
<path d="M300 0H301V53H300V0Z" fill="black"/>
<path d="M310 0H311V53H310V0Z" fill="black"/>
<path d="M320 0H321V53H320V0Z" fill="black"/>
<path d="M330 0H331V53H330V0Z" fill="black"/>
<path d="M340 0H341V53H340V0Z" fill="black"/>
<path d="M350 0H351V53H350V0Z" fill="black"/>
<path d="M360 0H361V53H360V0Z" fill="black"/>
<path d="M370 0H371V53H370V0Z" fill="black"/>
<path d="M380 0H381V53H380V0Z" fill="black"/>
<path d="M390 0H391V53H390V0Z" fill="black"/>
<path d="M400 0H401V53H400V0Z" fill="black"/>
<path d="M410 0H411V53H410V0Z" fill="black"/>
<path d="M420 0H421V53H420V0Z" fill="black"/>
<path d="M430 0H431V53H430V0Z" fill="black"/>
<path d="M440 0H441V53H440V0Z" fill="black"/>
<path d="M450 0H451V53H450V0Z" fill="black"/>
<path d="M460 0H461V53H460V0Z" fill="black"/>
<path d="M470 0H471V53H470V0Z" fill="black"/>
<path d="M480 0H481V53H480V0Z" fill="black"/>
<path d="M490 0H491V53H490V0Z" fill="black"/>
<path d="M500 0H501V53H500V0Z" fill="black"/>
<path d="M510 0H511V53H510V0Z" fill="black"/>
<path d="M520 0H521V53H520V0Z" fill="black"/>
<path d="M530 0H531V53H530V0Z" fill="black"/>
<path d="M540 0H541V53H540V0Z" fill="black"/>
</g>
</g>
</g>
</g>
<defs>
<clipPath id="clip0_470_12514">
<rect width="545" height="53" fill="white"/>
</clipPath>
<clipPath id="clip1_470_12514">
<rect width="545" height="53" fill="white"/>
</clipPath>
<clipPath id="clip2_470_12514">
<rect width="545" height="53" fill="white"/>
</clipPath>
</defs>
</svg>
