<svg width="228" height="274" viewBox="0 0 228 274" fill="none" xmlns="http://www.w3.org/2000/svg">
<g clip-path="url(#clip0_454_404)">
<g clip-path="url(#clip1_454_404)">
<g opacity="0.2">
<path d="M0 -9H322V-8H0V-9Z" fill="white"/>
<path d="M0 1H322V2H0V1Z" fill="white"/>
<path d="M0 11H322V12H0V11Z" fill="white"/>
<path d="M0 21H322V22H0V21Z" fill="white"/>
<path d="M0 31H322V32H0V31Z" fill="white"/>
<path d="M0 41H322V42H0V41Z" fill="white"/>
<path d="M0 51H322V52H0V51Z" fill="white"/>
<path d="M0 61H322V62H0V61Z" fill="white"/>
<path d="M0 71H322V72H0V71Z" fill="white"/>
<path d="M0 81H322V82H0V81Z" fill="white"/>
<path d="M0 91H322V92H0V91Z" fill="white"/>
<path d="M0 101H322V102H0V101Z" fill="white"/>
<path d="M0 111H322V112H0V111Z" fill="white"/>
<path d="M0 121H322V122H0V121Z" fill="white"/>
<path d="M0 131H322V132H0V131Z" fill="white"/>
<path d="M0 141H322V142H0V141Z" fill="white"/>
<path d="M0 151H322V152H0V151Z" fill="white"/>
<path d="M0 161H322V162H0V161Z" fill="white"/>
<path d="M0 171H322V172H0V171Z" fill="white"/>
<path d="M0 181H322V182H0V181Z" fill="white"/>
<path d="M0 191H322V192H0V191Z" fill="white"/>
<path d="M0 201H322V202H0V201Z" fill="white"/>
<path d="M0 211H322V212H0V211Z" fill="white"/>
<path d="M0 221H322V222H0V221Z" fill="white"/>
<path d="M0 231H322V232H0V231Z" fill="white"/>
<path d="M0 241H322V242H0V241Z" fill="white"/>
<path d="M0 251H322V252H0V251Z" fill="white"/>
<path d="M0 261H322V262H0V261Z" fill="white"/>
<path d="M0 271H322V272H0V271Z" fill="white"/>
<path d="M0 -9H1V274H0V-9Z" fill="white"/>
<path d="M10 -9H11V274H10V-9Z" fill="white"/>
<path d="M20 -9H21V274H20V-9Z" fill="white"/>
<path d="M30 -9H31V274H30V-9Z" fill="white"/>
<path d="M40 -9H41V274H40V-9Z" fill="white"/>
<path d="M50 -9H51V274H50V-9Z" fill="white"/>
<path d="M60 -9H61V274H60V-9Z" fill="white"/>
<path d="M70 -9H71V274H70V-9Z" fill="white"/>
<path d="M80 -9H81V274H80V-9Z" fill="white"/>
<path d="M90 -9H91V274H90V-9Z" fill="white"/>
<path d="M100 -9H101V274H100V-9Z" fill="white"/>
<path d="M110 -9H111V274H110V-9Z" fill="white"/>
<path d="M120 -9H121V274H120V-9Z" fill="white"/>
<path d="M130 -9H131V274H130V-9Z" fill="white"/>
<path d="M140 -9H141V274H140V-9Z" fill="white"/>
<path d="M150 -9H151V274H150V-9Z" fill="white"/>
<path d="M160 -9H161V274H160V-9Z" fill="white"/>
<path d="M170 -9H171V274H170V-9Z" fill="white"/>
<path d="M180 -9H181V274H180V-9Z" fill="white"/>
<path d="M190 -9H191V274H190V-9Z" fill="white"/>
<path d="M200 -9H201V274H200V-9Z" fill="white"/>
<path d="M210 -9H211V274H210V-9Z" fill="white"/>
<path d="M220 -9H221V274H220V-9Z" fill="white"/>
<path d="M230 -9H231V274H230V-9Z" fill="white"/>
<path d="M240 -9H241V274H240V-9Z" fill="white"/>
<path d="M250 -9H251V274H250V-9Z" fill="white"/>
<path d="M260 -9H261V274H260V-9Z" fill="white"/>
<path d="M270 -9H271V274H270V-9Z" fill="white"/>
<path d="M280 -9H281V274H280V-9Z" fill="white"/>
<path d="M290 -9H291V274H290V-9Z" fill="white"/>
<path d="M300 -9H301V274H300V-9Z" fill="white"/>
<path d="M310 -9H311V274H310V-9Z" fill="white"/>
<path d="M320 -9H321V274H320V-9Z" fill="white"/>
</g>
</g>
</g>
<defs>
<clipPath id="clip0_454_404">
<rect width="322" height="283" fill="white" transform="translate(0 -9)"/>
</clipPath>
<clipPath id="clip1_454_404">
<rect width="322" height="283" fill="white" transform="translate(0 -9)"/>
</clipPath>
</defs>
</svg>
